<svg width="1511" height="1068" viewBox="0 0 1511 1068" fill="none" xmlns="http://www.w3.org/2000/svg">
<g clip-path="url(#clip0_0_693)">
<path d="M1194.67 570.826C1185.98 605.129 1161.67 633.789 1125.07 656.233C1088.46 678.679 1039.59 694.887 981.849 704.283C866.369 723.073 715.52 714.595 556.684 674.373C397.848 634.15 261.145 569.81 168.527 498.322C122.218 462.578 86.9491 425.062 65.4386 387.899C43.9297 350.74 36.1923 313.964 44.8789 279.661C53.5655 245.359 77.8735 216.698 114.476 194.254C151.081 171.809 199.955 155.6 257.695 146.205C373.175 127.414 524.024 135.892 682.86 176.115C841.696 216.337 978.399 280.677 1071.02 352.165C1117.33 387.909 1152.6 425.426 1174.11 462.588C1195.61 499.748 1203.35 536.523 1194.67 570.826Z" stroke="url(#paint0_linear_0_693)"/>
<path d="M1455.27 636.82C1442.63 686.733 1407.27 728.418 1354.05 761.049C1300.83 793.681 1229.79 817.238 1145.88 830.892C978.06 858.199 758.855 845.877 528.054 787.431C297.254 728.984 98.6035 635.491 -35.9941 531.601C-103.294 479.656 -154.56 425.126 -185.833 371.098C-217.104 317.073 -228.368 263.58 -215.728 213.667C-203.088 163.754 -167.722 122.069 -114.507 89.4388C-61.2891 56.8067 9.75156 33.2494 93.663 19.5956C261.484 -7.71156 480.689 4.61041 711.49 63.0569C942.29 121.503 1140.94 214.996 1275.54 318.886C1342.84 370.831 1394.1 425.361 1425.38 479.389C1456.65 533.414 1467.91 586.908 1455.27 636.82Z" stroke="url(#paint1_linear_0_693)"/>
<path d="M1772.38 717.123C1754.93 786.03 1706.11 843.564 1632.68 888.589C1559.25 933.617 1461.23 966.116 1345.48 984.951C1113.97 1022.62 811.585 1005.62 493.217 925.001C174.849 844.379 -99.1792 715.413 -284.858 572.096C-377.698 500.437 -448.431 425.205 -491.582 350.655C-534.732 276.107 -550.287 202.272 -532.837 133.365C-515.388 64.4573 -466.566 6.92394 -393.136 -38.1017C-319.704 -83.129 -221.69 -115.628 -105.933 -134.464C125.577 -172.134 427.959 -155.135 746.327 -74.5132C1064.7 6.10825 1338.72 135.075 1524.4 278.392C1617.24 350.051 1687.97 425.283 1731.13 499.833C1774.28 574.38 1789.83 648.216 1772.38 717.123Z" stroke="url(#paint2_linear_0_693)"/>
</g>
<defs>
<linearGradient id="paint0_linear_0_693" x1="84.6959" y1="259.796" x2="1080.76" y2="673.025" gradientUnits="userSpaceOnUse">
<stop stop-color="#484848"/>
<stop offset="0.491388" stop-color="#484848" stop-opacity="0.36"/>
<stop offset="1" stop-color="#484848"/>
</linearGradient>
<linearGradient id="paint1_linear_0_693" x1="-157.657" y1="184.859" x2="1289.55" y2="785.253" gradientUnits="userSpaceOnUse">
<stop stop-color="#484848"/>
<stop offset="0.491388" stop-color="#484848" stop-opacity="0.36"/>
<stop offset="1" stop-color="#484848"/>
</linearGradient>
<linearGradient id="paint2_linear_0_693" x1="-452.555" y1="93.6755" x2="1543.61" y2="921.813" gradientUnits="userSpaceOnUse">
<stop stop-color="#484848"/>
<stop offset="0.491388" stop-color="#484848" stop-opacity="0.36"/>
<stop offset="1" stop-color="#484848"/>
</linearGradient>
<clipPath id="clip0_0_693">
<rect width="1548" height="1068" fill="white"/>
</clipPath>
</defs>
</svg>
